<?xml version="1.0" encoding="UTF-8" standalone="no"?><svg xmlns="http://www.w3.org/2000/svg" xmlns:xlink="http://www.w3.org/1999/xlink" contentScriptType="application/ecmascript" contentStyleType="text/css" height="696px" preserveAspectRatio="none" style="width:2024px;height:696px;" version="1.1" viewBox="0 0 2024 696" width="2024px" zoomAndPan="magnify"><defs><filter height="300%" id="f19nb0flub8470" width="300%" x="-1" y="-1"><feGaussianBlur result="blurOut" stdDeviation="2.0"/><feColorMatrix in="blurOut" result="blurOut2" type="matrix" values="0 0 0 0 0 0 0 0 0 0 0 0 0 0 0 0 0 0 .4 0"/><feOffset dx="4.0" dy="4.0" in="blurOut2" result="blurOut3"/><feBlend in="SourceGraphic" in2="blurOut3" mode="normal"/></filter></defs><g><!--MD5=[01435ace8273dc3cae88e7f376e4d373]
cluster core--><polygon fill="#FFFFFF" filter="url(#f19nb0flub8470)" points="22,24,64,24,71,46.2969,2002,46.2969,2002,684,22,684,22,24" style="stroke: #000000; stroke-width: 1.5;"/><line style="stroke: #000000; stroke-width: 1.5;" x1="22" x2="71" y1="46.2969" y2="46.2969"/><text fill="#000000" font-family="sans-serif" font-size="14" font-weight="bold" lengthAdjust="spacingAndGlyphs" textLength="36" x="26" y="38.9951">core</text><!--MD5=[f12f832c3ac0603ce526ef171d08d9c6]
cluster base--><polygon fill="#FFFFFF" filter="url(#f19nb0flub8470)" points="54,205,98,205,105,227.2969,645,227.2969,645,652,54,652,54,205" style="stroke: #000000; stroke-width: 1.5;"/><line style="stroke: #000000; stroke-width: 1.5;" x1="54" x2="105" y1="227.2969" y2="227.2969"/><text fill="#000000" font-family="sans-serif" font-size="14" font-weight="bold" lengthAdjust="spacingAndGlyphs" textLength="38" x="58" y="219.9951">base</text><!--MD5=[82e865073170c2da8a76a939041dabe8]
cluster commands--><polygon fill="#FFFFFF" filter="url(#f19nb0flub8470)" points="677,67,768,67,775,89.2969,1978,89.2969,1978,478,677,478,677,67" style="stroke: #000000; stroke-width: 1.5;"/><line style="stroke: #000000; stroke-width: 1.5;" x1="677" x2="775" y1="89.2969" y2="89.2969"/><text fill="#000000" font-family="sans-serif" font-size="14" font-weight="bold" lengthAdjust="spacingAndGlyphs" textLength="85" x="681" y="81.9951">commands</text><path d="M38,106 L38,146.2656 L404,146.2656 L404,116 L394,106 L38,106 " fill="#FBFB77" filter="url(#f19nb0flub8470)" style="stroke: #A80036; stroke-width: 1.0;"/><path d="M394,106 L394,116 L404,116 L394,106 " fill="#FBFB77" style="stroke: #A80036; stroke-width: 1.0;"/><text fill="#000000" font-family="sans-serif" font-size="13" lengthAdjust="spacingAndGlyphs" textLength="345" x="44" y="123.0669">The base package contains the classes and interfaces</text><text fill="#000000" font-family="sans-serif" font-size="13" lengthAdjust="spacingAndGlyphs" textLength="260" x="44" y="138.1997">necessary to implement the WIT system.</text><!--MD5=[7642abb8b32912eee8496b97de30e370]
class InputInterpreter--><rect fill="#FEFECE" filter="url(#f19nb0flub8470)" height="86.4141" id="InputInterpreter" style="stroke: #A80036; stroke-width: 1.5;" width="227" x="86.5" y="395"/><ellipse cx="144.75" cy="411" fill="#A9DCDF" rx="11" ry="11" style="stroke: #A80036; stroke-width: 1.0;"/><path d="M144.8594,406.3438 L143.7031,411.4219 L146.0313,411.4219 L144.8594,406.3438 Z M143.375,404.1094 L146.3594,404.1094 L149.7188,416.5 L147.2656,416.5 L146.5,413.4375 L143.2188,413.4375 L142.4688,416.5 L140.0313,416.5 L143.375,404.1094 Z "/><text fill="#000000" font-family="sans-serif" font-size="12" font-style="italic" lengthAdjust="spacingAndGlyphs" textLength="102" x="165.25" y="415.1543">InputInterpreter</text><line style="stroke: #A80036; stroke-width: 1.5;" x1="87.5" x2="312.5" y1="427" y2="427"/><rect fill="none" height="6" style="stroke: #C82930; stroke-width: 1.0;" width="6" x="94.5" y="435"/><text fill="#000000" font-family="sans-serif" font-size="11" lengthAdjust="spacingAndGlyphs" textLength="130" x="106.5" y="441.2104">system: TypingSystem</text><line style="stroke: #A80036; stroke-width: 1.5;" x1="87.5" x2="312.5" y1="447.8047" y2="447.8047"/><ellipse cx="97.5" cy="458.8047" fill="#84BE84" rx="3" ry="3" style="stroke: #038048; stroke-width: 1.0;"/><text fill="#000000" font-family="sans-serif" font-size="11" lengthAdjust="spacingAndGlyphs" textLength="201" x="106.5" y="462.0151">setTypingSystem(TypingSystem ts)</text><ellipse cx="97.5" cy="471.6094" fill="#84BE84" rx="3" ry="3" style="stroke: #038048; stroke-width: 1.0;"/><text fill="#000000" font-family="sans-serif" font-size="11" lengthAdjust="spacingAndGlyphs" textLength="101" x="106.5" y="474.8198">passInput(int key)</text><path d="M97,248 L97,333.6641 A0,0 0 0 0 97,333.6641 L210.87,333.6641 L206.1,394.87 L218.87,333.6641 L345,333.6641 A0,0 0 0 0 345,333.6641 L345,258 L335,248 L97,248 A0,0 0 0 0 97,248 " fill="#FBFB77" filter="url(#f19nb0flub8470)" style="stroke: #A80036; stroke-width: 1.0;"/><path d="M335,248 L335,258 L345,258 L335,248 " fill="#FBFB77" style="stroke: #A80036; stroke-width: 1.0;"/><text fill="#000000" font-family="sans-serif" font-size="13" lengthAdjust="spacingAndGlyphs" textLength="126" x="103" y="265.0669">Parses the input it's</text><text fill="#000000" font-family="sans-serif" font-size="13" lengthAdjust="spacingAndGlyphs" textLength="217" x="103" y="280.1997">desired way and outputs numbers</text><text fill="#000000" font-family="sans-serif" font-size="13" lengthAdjust="spacingAndGlyphs" textLength="215" x="103" y="295.3325">1-10. No specific implementation.</text><text fill="#000000" font-family="sans-serif" font-size="13" lengthAdjust="spacingAndGlyphs" textLength="227" x="103" y="310.4653">Future implementation may include</text><text fill="#000000" font-family="sans-serif" font-size="13" lengthAdjust="spacingAndGlyphs" textLength="103" x="103" y="325.5981">physical devices</text><!--MD5=[c1b142b2b485de5d3cf1272b686983f4]
class TypingSystem--><rect fill="#FEFECE" filter="url(#f19nb0flub8470)" height="86.4141" id="TypingSystem" style="stroke: #A80036; stroke-width: 1.5;" width="200" x="421" y="395"/><ellipse cx="473.75" cy="411" fill="#A9DCDF" rx="11" ry="11" style="stroke: #A80036; stroke-width: 1.0;"/><path d="M473.8594,406.3438 L472.7031,411.4219 L475.0313,411.4219 L473.8594,406.3438 Z M472.375,404.1094 L475.3594,404.1094 L478.7188,416.5 L476.2656,416.5 L475.5,413.4375 L472.2188,413.4375 L471.4688,416.5 L469.0313,416.5 L472.375,404.1094 Z "/><text fill="#000000" font-family="sans-serif" font-size="12" font-style="italic" lengthAdjust="spacingAndGlyphs" textLength="86" x="494.25" y="415.1543">TypingSystem</text><line style="stroke: #A80036; stroke-width: 1.5;" x1="422" x2="620" y1="427" y2="427"/><rect fill="none" height="6" style="stroke: #C82930; stroke-width: 1.0;" width="6" x="429" y="435"/><text fill="#000000" font-family="sans-serif" font-size="11" lengthAdjust="spacingAndGlyphs" textLength="131" x="441" y="441.2104">context: Commandable</text><line style="stroke: #A80036; stroke-width: 1.5;" x1="422" x2="620" y1="447.8047" y2="447.8047"/><ellipse cx="432" cy="458.8047" fill="#84BE84" rx="3" ry="3" style="stroke: #038048; stroke-width: 1.0;"/><text fill="#000000" font-family="sans-serif" font-size="11" lengthAdjust="spacingAndGlyphs" textLength="73" x="441" y="462.0151">input(int key)</text><ellipse cx="432" cy="471.6094" fill="#84BE84" rx="3" ry="3" style="stroke: #038048; stroke-width: 1.0;"/><text fill="#000000" font-family="sans-serif" font-size="11" lengthAdjust="spacingAndGlyphs" textLength="174" x="441" y="474.8198">executeCommand(String keys)</text><path d="M333.5,542 L333.5,627.6641 A0,0 0 0 0 333.5,627.6641 L620.5,627.6641 A0,0 0 0 0 620.5,627.6641 L620.5,552 L610.5,542 L493.78,542 L508.16,481.33 L485.78,542 L333.5,542 A0,0 0 0 0 333.5,542 " fill="#FBFB77" filter="url(#f19nb0flub8470)" style="stroke: #A80036; stroke-width: 1.0;"/><path d="M610.5,542 L610.5,552 L620.5,552 L610.5,542 " fill="#FBFB77" style="stroke: #A80036; stroke-width: 1.0;"/><text fill="#000000" font-family="sans-serif" font-size="13" lengthAdjust="spacingAndGlyphs" textLength="162" x="339.5" y="559.0669">Holds the inputed values,</text><text fill="#000000" font-family="sans-serif" font-size="13" lengthAdjust="spacingAndGlyphs" textLength="191" x="339.5" y="574.1997">when needed values achieved</text><text fill="#000000" font-family="sans-serif" font-size="13" lengthAdjust="spacingAndGlyphs" textLength="180" x="339.5" y="589.3325">parses config file for needed</text><text fill="#000000" font-family="sans-serif" font-size="13" lengthAdjust="spacingAndGlyphs" textLength="266" x="339.5" y="604.4653">command and passes it to corresponding</text><text fill="#000000" font-family="sans-serif" font-size="13" lengthAdjust="spacingAndGlyphs" textLength="266" x="339.5" y="619.5981">function within the Commandable context</text><!--MD5=[b28dcdfcdb2e43be3cfaf2744e6bcc82]
class Commandable--><rect fill="#FEFECE" filter="url(#f19nb0flub8470)" height="48" id="Commandable" style="stroke: #A80036; stroke-width: 1.5;" width="121" x="1539.5" y="102"/><ellipse cx="1554.5" cy="118" fill="#B4A7E5" rx="11" ry="11" style="stroke: #A80036; stroke-width: 1.0;"/><path d="M1550.4219,113.7656 L1550.4219,111.6094 L1557.8125,111.6094 L1557.8125,113.7656 L1555.3438,113.7656 L1555.3438,121.8438 L1557.8125,121.8438 L1557.8125,124 L1550.4219,124 L1550.4219,121.8438 L1552.8906,121.8438 L1552.8906,113.7656 L1550.4219,113.7656 Z "/><text fill="#000000" font-family="sans-serif" font-size="12" font-style="italic" lengthAdjust="spacingAndGlyphs" textLength="89" x="1568.5" y="122.1543">Commandable</text><line style="stroke: #A80036; stroke-width: 1.5;" x1="1540.5" x2="1659.5" y1="134" y2="134"/><line style="stroke: #A80036; stroke-width: 1.5;" x1="1540.5" x2="1659.5" y1="142" y2="142"/><!--MD5=[95d9c7de276e7f46cfeb016e5bc15d50]
class BasicCommandable--><rect fill="#FEFECE" filter="url(#f19nb0flub8470)" height="48" id="BasicCommandable" style="stroke: #A80036; stroke-width: 1.5;" width="153" x="1523.5" y="414"/><ellipse cx="1538.5" cy="430" fill="#B4A7E5" rx="11" ry="11" style="stroke: #A80036; stroke-width: 1.0;"/><path d="M1534.4219,425.7656 L1534.4219,423.6094 L1541.8125,423.6094 L1541.8125,425.7656 L1539.3438,425.7656 L1539.3438,433.8438 L1541.8125,433.8438 L1541.8125,436 L1534.4219,436 L1534.4219,433.8438 L1536.8906,433.8438 L1536.8906,425.7656 L1534.4219,425.7656 Z "/><text fill="#000000" font-family="sans-serif" font-size="12" font-style="italic" lengthAdjust="spacingAndGlyphs" textLength="121" x="1552.5" y="434.1543">BasicCommandable</text><line style="stroke: #A80036; stroke-width: 1.5;" x1="1524.5" x2="1675.5" y1="446" y2="446"/><line style="stroke: #A80036; stroke-width: 1.5;" x1="1524.5" x2="1675.5" y1="454" y2="454"/><!--MD5=[00b8c8272d00d43fcf8a13b73a1cb7a8]
class AppendCommandable--><rect fill="#FEFECE" filter="url(#f19nb0flub8470)" height="60.8047" id="AppendCommandable" style="stroke: #A80036; stroke-width: 1.5;" width="220" x="1226" y="260.5"/><ellipse cx="1263.95" cy="276.5" fill="#B4A7E5" rx="11" ry="11" style="stroke: #A80036; stroke-width: 1.0;"/><path d="M1259.8719,272.2656 L1259.8719,270.1094 L1267.2625,270.1094 L1267.2625,272.2656 L1264.7938,272.2656 L1264.7938,280.3438 L1267.2625,280.3438 L1267.2625,282.5 L1259.8719,282.5 L1259.8719,280.3438 L1262.3406,280.3438 L1262.3406,272.2656 L1259.8719,272.2656 Z "/><text fill="#000000" font-family="sans-serif" font-size="12" font-style="italic" lengthAdjust="spacingAndGlyphs" textLength="137" x="1283.05" y="280.6543">AppendCommandable</text><line style="stroke: #A80036; stroke-width: 1.5;" x1="1227" x2="1445" y1="292.5" y2="292.5"/><line style="stroke: #A80036; stroke-width: 1.5;" x1="1227" x2="1445" y1="300.5" y2="300.5"/><ellipse cx="1237" cy="311.5" fill="#84BE84" rx="3" ry="3" style="stroke: #038048; stroke-width: 1.0;"/><text fill="#000000" font-family="sans-serif" font-size="11" lengthAdjust="spacingAndGlyphs" textLength="194" x="1246" y="314.7104">typingAppend(AppendCommand c)</text><!--MD5=[f49d805250f21b9e95b594ce825e79ac]
class MessageCommandable--><rect fill="#FEFECE" filter="url(#f19nb0flub8470)" height="60.8047" id="MessageCommandable" style="stroke: #A80036; stroke-width: 1.5;" width="238" x="1481" y="260.5"/><ellipse cx="1524.35" cy="276.5" fill="#B4A7E5" rx="11" ry="11" style="stroke: #A80036; stroke-width: 1.0;"/><path d="M1520.2719,272.2656 L1520.2719,270.1094 L1527.6625,270.1094 L1527.6625,272.2656 L1525.1938,272.2656 L1525.1938,280.3438 L1527.6625,280.3438 L1527.6625,282.5 L1520.2719,282.5 L1520.2719,280.3438 L1522.7406,280.3438 L1522.7406,272.2656 L1520.2719,272.2656 Z "/><text fill="#000000" font-family="sans-serif" font-size="12" font-style="italic" lengthAdjust="spacingAndGlyphs" textLength="143" x="1544.65" y="280.6543">MessageCommandable</text><line style="stroke: #A80036; stroke-width: 1.5;" x1="1482" x2="1718" y1="292.5" y2="292.5"/><line style="stroke: #A80036; stroke-width: 1.5;" x1="1482" x2="1718" y1="300.5" y2="300.5"/><ellipse cx="1492" cy="311.5" fill="#84BE84" rx="3" ry="3" style="stroke: #038048; stroke-width: 1.0;"/><text fill="#000000" font-family="sans-serif" font-size="11" lengthAdjust="spacingAndGlyphs" textLength="212" x="1501" y="314.7104">typingMessage(MessageCommand c)</text><!--MD5=[4d1dc5ab1cda52d619753627c1de9138]
class DeleteCommandable--><rect fill="#FEFECE" filter="url(#f19nb0flub8470)" height="60.8047" id="DeleteCommandable" style="stroke: #A80036; stroke-width: 1.5;" width="208" x="1754" y="260.5"/><ellipse cx="1789.7" cy="276.5" fill="#B4A7E5" rx="11" ry="11" style="stroke: #A80036; stroke-width: 1.0;"/><path d="M1785.6219,272.2656 L1785.6219,270.1094 L1793.0125,270.1094 L1793.0125,272.2656 L1790.5438,272.2656 L1790.5438,280.3438 L1793.0125,280.3438 L1793.0125,282.5 L1785.6219,282.5 L1785.6219,280.3438 L1788.0906,280.3438 L1788.0906,272.2656 L1785.6219,272.2656 Z "/><text fill="#000000" font-family="sans-serif" font-size="12" font-style="italic" lengthAdjust="spacingAndGlyphs" textLength="130" x="1808.3" y="280.6543">DeleteCommandable</text><line style="stroke: #A80036; stroke-width: 1.5;" x1="1755" x2="1961" y1="292.5" y2="292.5"/><line style="stroke: #A80036; stroke-width: 1.5;" x1="1755" x2="1961" y1="300.5" y2="300.5"/><ellipse cx="1765" cy="311.5" fill="#84BE84" rx="3" ry="3" style="stroke: #038048; stroke-width: 1.0;"/><text fill="#000000" font-family="sans-serif" font-size="11" lengthAdjust="spacingAndGlyphs" textLength="182" x="1774" y="314.7104">typingDelete(DeleteCommand c)</text><!--MD5=[521817ab83e81da341a3f4b5e91bae41]
class Command--><rect fill="#FEFECE" filter="url(#f19nb0flub8470)" height="48" id="Command" style="stroke: #A80036; stroke-width: 1.5;" width="94" x="898" y="102"/><ellipse cx="913" cy="118" fill="#A9DCDF" rx="11" ry="11" style="stroke: #A80036; stroke-width: 1.0;"/><path d="M913.1094,113.3438 L911.9531,118.4219 L914.2813,118.4219 L913.1094,113.3438 Z M911.625,111.1094 L914.6094,111.1094 L917.9688,123.5 L915.5156,123.5 L914.75,120.4375 L911.4688,120.4375 L910.7188,123.5 L908.2813,123.5 L911.625,111.1094 Z "/><text fill="#000000" font-family="sans-serif" font-size="12" font-style="italic" lengthAdjust="spacingAndGlyphs" textLength="62" x="927" y="122.1543">Command</text><line style="stroke: #A80036; stroke-width: 1.5;" x1="899" x2="991" y1="134" y2="134"/><line style="stroke: #A80036; stroke-width: 1.5;" x1="899" x2="991" y1="142" y2="142"/><!--MD5=[ebbb1413f121d6a9b4ce63a1f976d9a6]
class AppendCommand--><rect fill="#FEFECE" filter="url(#f19nb0flub8470)" height="86.4141" id="AppendCommand" style="stroke: #A80036; stroke-width: 1.5;" width="142" x="693" y="248"/><ellipse cx="708" cy="264" fill="#ADD1B2" rx="11" ry="11" style="stroke: #A80036; stroke-width: 1.0;"/><path d="M710.9688,269.6406 Q710.3906,269.9375 709.75,270.0781 Q709.1094,270.2344 708.4063,270.2344 Q705.9063,270.2344 704.5781,268.5938 Q703.2656,266.9375 703.2656,263.8125 Q703.2656,260.6875 704.5781,259.0313 Q705.9063,257.375 708.4063,257.375 Q709.1094,257.375 709.75,257.5313 Q710.4063,257.6875 710.9688,257.9844 L710.9688,260.7031 Q710.3438,260.125 709.75,259.8594 Q709.1563,259.5781 708.5313,259.5781 Q707.1875,259.5781 706.5,260.6563 Q705.8125,261.7188 705.8125,263.8125 Q705.8125,265.9063 706.5,266.9844 Q707.1875,268.0469 708.5313,268.0469 Q709.1563,268.0469 709.75,267.7813 Q710.3438,267.5 710.9688,266.9219 L710.9688,269.6406 Z "/><text fill="#000000" font-family="sans-serif" font-size="12" lengthAdjust="spacingAndGlyphs" textLength="110" x="722" y="268.1543">AppendCommand</text><line style="stroke: #A80036; stroke-width: 1.5;" x1="694" x2="834" y1="280" y2="280"/><ellipse cx="704" cy="291" fill="none" rx="3" ry="3" style="stroke: #038048; stroke-width: 1.0;"/><text fill="#000000" font-family="sans-serif" font-size="11" lengthAdjust="spacingAndGlyphs" textLength="68" x="713" y="294.2104">TYPE: Enum</text><rect fill="none" height="6" style="stroke: #C82930; stroke-width: 1.0;" width="6" x="701" y="300.8047"/><text fill="#000000" font-family="sans-serif" font-size="11" lengthAdjust="spacingAndGlyphs" textLength="102" x="713" y="307.0151">uppercase: String</text><rect fill="none" height="6" style="stroke: #C82930; stroke-width: 1.0;" width="6" x="701" y="313.6094"/><text fill="#000000" font-family="sans-serif" font-size="11" lengthAdjust="spacingAndGlyphs" textLength="100" x="713" y="319.8198">lowercase: String</text><line style="stroke: #A80036; stroke-width: 1.5;" x1="694" x2="834" y1="326.4141" y2="326.4141"/><!--MD5=[b8495f90fee424cde7e8842c7b9ebce0]
class MessageCommand--><rect fill="#FEFECE" filter="url(#f19nb0flub8470)" height="60.8047" id="MessageCommand" style="stroke: #A80036; stroke-width: 1.5;" width="150" x="870" y="260.5"/><ellipse cx="885" cy="276.5" fill="#ADD1B2" rx="11" ry="11" style="stroke: #A80036; stroke-width: 1.0;"/><path d="M887.9688,282.1406 Q887.3906,282.4375 886.75,282.5781 Q886.1094,282.7344 885.4063,282.7344 Q882.9063,282.7344 881.5781,281.0938 Q880.2656,279.4375 880.2656,276.3125 Q880.2656,273.1875 881.5781,271.5313 Q882.9063,269.875 885.4063,269.875 Q886.1094,269.875 886.75,270.0313 Q887.4063,270.1875 887.9688,270.4844 L887.9688,273.2031 Q887.3438,272.625 886.75,272.3594 Q886.1563,272.0781 885.5313,272.0781 Q884.1875,272.0781 883.5,273.1563 Q882.8125,274.2188 882.8125,276.3125 Q882.8125,278.4063 883.5,279.4844 Q884.1875,280.5469 885.5313,280.5469 Q886.1563,280.5469 886.75,280.2813 Q887.3438,280 887.9688,279.4219 L887.9688,282.1406 Z "/><text fill="#000000" font-family="sans-serif" font-size="12" lengthAdjust="spacingAndGlyphs" textLength="118" x="899" y="280.6543">MessageCommand</text><line style="stroke: #A80036; stroke-width: 1.5;" x1="871" x2="1019" y1="292.5" y2="292.5"/><ellipse cx="881" cy="303.5" fill="none" rx="3" ry="3" style="stroke: #038048; stroke-width: 1.0;"/><text fill="#000000" font-family="sans-serif" font-size="11" lengthAdjust="spacingAndGlyphs" textLength="68" x="890" y="306.7104">TYPE: Enum</text><line style="stroke: #A80036; stroke-width: 1.5;" x1="871" x2="1019" y1="313.3047" y2="313.3047"/><!--MD5=[522bcce41d81f20cd1f9638a73c3e08a]
class DeleteCommand--><rect fill="#FEFECE" filter="url(#f19nb0flub8470)" height="60.8047" id="DeleteCommand" style="stroke: #A80036; stroke-width: 1.5;" width="135" x="1055.5" y="260.5"/><ellipse cx="1070.5" cy="276.5" fill="#ADD1B2" rx="11" ry="11" style="stroke: #A80036; stroke-width: 1.0;"/><path d="M1073.4688,282.1406 Q1072.8906,282.4375 1072.25,282.5781 Q1071.6094,282.7344 1070.9063,282.7344 Q1068.4063,282.7344 1067.0781,281.0938 Q1065.7656,279.4375 1065.7656,276.3125 Q1065.7656,273.1875 1067.0781,271.5313 Q1068.4063,269.875 1070.9063,269.875 Q1071.6094,269.875 1072.25,270.0313 Q1072.9063,270.1875 1073.4688,270.4844 L1073.4688,273.2031 Q1072.8438,272.625 1072.25,272.3594 Q1071.6563,272.0781 1071.0313,272.0781 Q1069.6875,272.0781 1069,273.1563 Q1068.3125,274.2188 1068.3125,276.3125 Q1068.3125,278.4063 1069,279.4844 Q1069.6875,280.5469 1071.0313,280.5469 Q1071.6563,280.5469 1072.25,280.2813 Q1072.8438,280 1073.4688,279.4219 L1073.4688,282.1406 Z "/><text fill="#000000" font-family="sans-serif" font-size="12" lengthAdjust="spacingAndGlyphs" textLength="103" x="1084.5" y="280.6543">DeleteCommand</text><line style="stroke: #A80036; stroke-width: 1.5;" x1="1056.5" x2="1189.5" y1="292.5" y2="292.5"/><ellipse cx="1066.5" cy="303.5" fill="none" rx="3" ry="3" style="stroke: #038048; stroke-width: 1.0;"/><text fill="#000000" font-family="sans-serif" font-size="11" lengthAdjust="spacingAndGlyphs" textLength="68" x="1075.5" y="306.7104">TYPE: Enum</text><line style="stroke: #A80036; stroke-width: 1.5;" x1="1056.5" x2="1189.5" y1="313.3047" y2="313.3047"/><!--MD5=[66414b10d81fee9c9796fdcb0829347a]
link InputInterpreter to TypingSystem--><path d="M313.62,438 C346.84,438 382.98,438 415.66,438 " fill="none" id="InputInterpreter-&gt;TypingSystem" style="stroke: #A80036; stroke-width: 1.0;"/><polygon fill="#A80036" points="420.87,438,411.87,434,415.87,438,411.87,442,420.87,438" style="stroke: #A80036; stroke-width: 1.0;"/><text fill="#000000" font-family="sans-serif" font-size="13" lengthAdjust="spacingAndGlyphs" textLength="71" x="331.75" y="431.0669">Nums 1-10</text><!--MD5=[1a726913caccba3dc52f597264f4a769]
link GMN13 to base--><path d="M130.25,146.03 C107.13,155.23 84.69,168.85 70,189 C66.735,193.4763 64.1523,198.3802 62.1336,203.5387 C62.0074,203.8611 61.8834,204.1845 61.7616,204.5089 C61.7007,204.671 61.6404,204.8335 61.5805,204.9961 " fill="none" id="GMN13-base" style="stroke: #A80036; stroke-width: 1.0; stroke-dasharray: 7.0,7.0;"/><!--MD5=[abf7f6b8a87f7657a7587c7e86b13f1a]
reverse link AppendCommandable to BasicCommandable--><path d="M1407.47,331.25 C1455.67,357.73 1517.62,391.75 1558.04,413.96 " fill="none" id="AppendCommandable&lt;-BasicCommandable" style="stroke: #A80036; stroke-width: 1.0;"/><polygon fill="none" points="1403.9,337.28,1389.74,321.52,1410.64,325.01,1403.9,337.28" style="stroke: #A80036; stroke-width: 1.0;"/><!--MD5=[d3ed41c41ed1b20f09aa6fe88df8e262]
reverse link MessageCommandable to BasicCommandable--><path d="M1600,341.77 C1600,366.1 1600,394.21 1600,413.56 " fill="none" id="MessageCommandable&lt;-BasicCommandable" style="stroke: #A80036; stroke-width: 1.0;"/><polygon fill="none" points="1593,341.69,1600,321.69,1607,341.69,1593,341.69" style="stroke: #A80036; stroke-width: 1.0;"/><!--MD5=[acda0d101e0201c184e675781a6e1732]
reverse link DeleteCommandable to BasicCommandable--><path d="M1787.84,331.43 C1740.78,357.88 1680.42,391.8 1641,413.96 " fill="none" id="DeleteCommandable&lt;-BasicCommandable" style="stroke: #A80036; stroke-width: 1.0;"/><polygon fill="none" points="1784.61,325.21,1805.48,321.52,1791.47,337.42,1784.61,325.21" style="stroke: #A80036; stroke-width: 1.0;"/><!--MD5=[1c51140b79c7741db42df703dfe9931f]
reverse link Commandable to AppendCommandable--><path d="M1522.79,158.31 C1503.13,167.33 1482.38,177.78 1464,189 C1429.57,210.01 1393.81,238.93 1368.87,260.43 " fill="none" id="Commandable&lt;-AppendCommandable" style="stroke: #A80036; stroke-width: 1.0;"/><polygon fill="none" points="1520.07,151.86,1541.19,150.13,1525.76,164.65,1520.07,151.86" style="stroke: #A80036; stroke-width: 1.0;"/><!--MD5=[5ed39cc9cc120e0f64b83c52dda2afa8]
reverse link Commandable to MessageCommandable--><path d="M1600,170.33 C1600,198.81 1600,235.32 1600,260.49 " fill="none" id="Commandable&lt;-MessageCommandable" style="stroke: #A80036; stroke-width: 1.0;"/><polygon fill="none" points="1593,170.01,1600,150.01,1607,170.01,1593,170.01" style="stroke: #A80036; stroke-width: 1.0;"/><!--MD5=[1ec4b32bbf2f8561a2f9199acb8ed1c9]
reverse link Commandable to DeleteCommandable--><path d="M1678.54,158.15 C1698.18,167.12 1718.82,177.59 1737,189 C1770.15,209.79 1804.02,238.87 1827.46,260.49 " fill="none" id="Commandable&lt;-DeleteCommandable" style="stroke: #A80036; stroke-width: 1.0;"/><polygon fill="none" points="1675.61,164.51,1660.13,150.04,1681.26,151.7,1675.61,164.51" style="stroke: #A80036; stroke-width: 1.0;"/><!--MD5=[c31e9729dc347b70c0bda1de90810dde]
reverse link Command to AppendCommand--><path d="M888.88,161.48 C876.62,169.92 864.02,179.32 853,189 C832.81,206.74 812.8,228.92 796.88,247.98 " fill="none" id="Command&lt;-AppendCommand" style="stroke: #A80036; stroke-width: 1.0;"/><polygon fill="none" points="885.27,155.48,905.8,150.27,893,167.15,885.27,155.48" style="stroke: #A80036; stroke-width: 1.0;"/><!--MD5=[e9c41d10f8a074a2a7950ef5cb0062bd]
reverse link Command to MessageCommand--><path d="M945,170.33 C945,198.81 945,235.32 945,260.49 " fill="none" id="Command&lt;-MessageCommand" style="stroke: #A80036; stroke-width: 1.0;"/><polygon fill="none" points="938,170.01,945,150.01,952,170.01,938,170.01" style="stroke: #A80036; stroke-width: 1.0;"/><!--MD5=[f1beb5af875fdb2722f3c2f77ee742d1]
reverse link Command to DeleteCommand--><path d="M1001.91,161.23 C1014.3,169.68 1026.99,179.15 1038,189 C1062.09,210.54 1085.43,238.99 1101.54,260.21 " fill="none" id="Command&lt;-DeleteCommand" style="stroke: #A80036; stroke-width: 1.0;"/><polygon fill="none" points="997.7,166.84,984.8,150.03,1005.36,155.12,997.7,166.84" style="stroke: #A80036; stroke-width: 1.0;"/><!--MD5=[65446b9e4878aba359048af2c03f190d]
@startuml
package core{
	package base {
		note top of InputInterpreter  
			Parses the input it's
			desired way and outputs numbers
			1-10. No specific implementation.
			Future implementation may include
			physical devices
		end note
		abstract class InputInterpreter {
			- system: TypingSystem
			+ setTypingSystem(TypingSystem ts)
			+ passInput(int key)
		}


		InputInterpreter -> TypingSystem: Nums 1-10
		note bottom of TypingSystem
			Holds the inputed values,
			when needed values achieved
			parses config file for needed
			command and passes it to corresponding
			function within the Commandable context
		end note
		abstract class TypingSystem {
			- context: Commandable
			
			+ input(int key)
			+ executeCommand(String keys)
		}
	}
	note top of base
		The base package contains the classes and interfaces
		necessary to implement the WIT system.
	end note
	package commands {
		interface Commandable {

		}

		interface BasicCommandable extends AppendCommandable, MessageCommandable, DeleteCommandable {
		}

		interface AppendCommandable extends Commandable {
			+ typingAppend(AppendCommand c)
		}

		interface MessageCommandable extends Commandable {
			+ typingMessage(MessageCommand c)
		}

		interface DeleteCommandable extends Commandable {
			+ typingDelete(DeleteCommand c)
		}

		abstract class Command {
		}

		class AppendCommand extends Command {
			+ TYPE: Enum
			- uppercase: String
			- lowercase: String
		}

		class MessageCommand extends Command {
			+ TYPE: Enum
		}

		class DeleteCommand extends Command {
			+ TYPE: Enum
		}
	}
}

@enduml

PlantUML version 1.2019.13(Tue Dec 10 12:18:29 EST 2019)
(GPL source distribution)
Java Runtime: OpenJDK Runtime Environment
JVM: OpenJDK 64-Bit Server VM
Java Version: 11.0.9.1+1-Ubuntu-0ubuntu1.20.04
Operating System: Linux
Default Encoding: UTF-8
Language: en
Country: US
--></g></svg>